<svg viewBox="0 0 100 100" fill="none" xmlns="http://www.w3.org/2000/svg"><path d="m46.8 47-2 2h-2l-2-2V31l2-2h2l2 2v16Zm-8-22 2 2v2l-2 2H22.6l-2-2v-2l2-2h16Zm0 22 2 2v2l-2 2H22.6l-2-2v-2l2-2h16Zm8 22-2 2h-2l-2-2V53l2-2h2l2 2v16Zm-8 0 2 2v2.1l-2 2H22.6l-2-2v-2l2-2h16Zm14.4-22 2 2h2l2-2V31l-2-2h-2l-2 2v16Zm8-22-2 2v2l2 2h16l2-2v-2l-2-2h-16Zm-8 44 2 2h2l2-2V53l-2-2h-2l-2 2v16Zm8 0-2 2v2.1l2 2h16l2-2v-2l-2-2h-16Z" fill="#000"/><path d="M86.2 86.2H20.7l-7-7V13.9h72.5v72.4ZM100 29.3v-6.9h-7V7H77.6V0h-6.8v6.9h-5.2V0h-7v6.9h-5V0h-7v6.9h-5.1V0h-7v6.9h-5.1V0h-6.9v6.9H7v15.5H0v6.7h6.9v5.4H0v6.9h6.9v5.2H0v6.9h6.9v5.2H0v6.9h6.9v5H0v7h6.9v4l11.5 11.5h4v6.9h7v-6.9h5.1v6.9h6.9v-6.9h5.2v6.9h6.9v-6.9h5.1v6.9h7v-6.9h5.1v6.9h6.9v-6.9H93V77.6h6.9v-7H93v-5h6.9v-7H93v-5.1h6.9v-6.9H93v-5.2h6.9v-7H93v-5h6.9Z" fill="#000"/></svg>